<?xml version="1.0" encoding="utf-8"?>
<!-- Generator: Adobe Illustrator 24.0.1, SVG Export Plug-In . SVG Version: 6.00 Build 0)  -->
<svg version="1.1" xmlns="http://www.w3.org/2000/svg" xmlns:xlink="http://www.w3.org/1999/xlink" x="0px" y="0px"
	 viewBox="0 0 500 500" style="enable-background:new 0 0 500 500;" xml:space="preserve">
<style type="text/css">
	.st0{fill:#FFFFFF;}
	.st1{fill:url(#SVGID_1_);}
	.st2{fill:#F5F9FF;}
	.st3{fill:url(#SVGID_2_);}
	.st4{fill:#0BF8E0;}
	.st5{fill:#DCE1FF;}
	.st6{fill:#ADBBFE;}
	.st7{fill:#DFE9F7;}
	.st8{fill:url(#SVGID_3_);}
	.st9{fill:url(#SVGID_4_);}
	.st10{fill:#474EB8;}
	.st11{fill:#96AAFF;}
	.st12{fill:url(#SVGID_5_);}
	.st13{fill:url(#SVGID_6_);}
	.st14{fill:url(#SVGID_7_);}
	.st15{enable-background:new    ;}
	.st16{fill:url(#SVGID_8_);}
	.st17{fill:url(#SVGID_9_);}
	.st18{fill:url(#SVGID_10_);}
	.st19{fill:#7EC8FF;}
</style>
<g id="BACKGROUND">
	<rect class="st0" width="500" height="500"/>
</g>
<g id="OBJECTS_1_">
	<g>
		<g>
			<linearGradient id="SVGID_1_" gradientUnits="userSpaceOnUse" x1="30.9358" y1="417.2988" x2="468.9386" y2="417.2988">
				<stop  offset="0" style="stop-color:#97B2E3"/>
				<stop  offset="8.989373e-03" style="stop-color:#A1BAE7"/>
				<stop  offset="0.036" style="stop-color:#B9CEF0"/>
				<stop  offset="0.0667" style="stop-color:#CBDEF6"/>
				<stop  offset="0.1029" style="stop-color:#D8E9FB"/>
				<stop  offset="0.1499" style="stop-color:#E0EFFE"/>
				<stop  offset="0.2463" style="stop-color:#E2F1FF"/>
				<stop  offset="0.5718" style="stop-color:#E2F1FF"/>
				<stop  offset="0.7253" style="stop-color:#E0EFFE"/>
				<stop  offset="0.8098" style="stop-color:#D8E8FB"/>
				<stop  offset="0.8775" style="stop-color:#CADDF6"/>
				<stop  offset="0.9362" style="stop-color:#B6CCEF"/>
				<stop  offset="0.9888" style="stop-color:#9DB7E5"/>
				<stop  offset="1" style="stop-color:#97B2E3"/>
			</linearGradient>
			<path class="st1" d="M468.94,500l-0.23-165.4c0,0.75-0.02,1.49-0.04,2.24c-0.01,0.53-0.03,1.07-0.06,1.6
				c-0.02,0.5-0.05,1-0.09,1.5c-0.04,0.53-0.08,1.06-0.13,1.59c-0.05,0.5-0.1,1-0.15,1.5c-0.06,0.53-0.12,1.06-0.2,1.59
				c-0.07,0.5-0.14,1-0.21,1.49c-0.08,0.53-0.17,1.06-0.26,1.59c-0.09,0.5-0.18,1-0.28,1.49c-0.1,0.52-0.21,1.04-0.32,1.56
				c-0.11,0.5-0.22,1-0.34,1.5c-0.12,0.52-0.26,1.04-0.39,1.56c-0.13,0.5-0.26,1-0.4,1.5c-0.15,0.52-0.3,1.03-0.46,1.55
				c-0.15,0.5-0.3,1-0.47,1.5c-0.17,0.51-0.34,1.03-0.52,1.54c-0.17,0.49-0.34,0.98-0.52,1.48c-0.2,0.54-0.41,1.08-0.62,1.62
				c-0.19,0.48-0.38,0.96-0.57,1.44c-0.22,0.54-0.46,1.07-0.69,1.61c-0.21,0.48-0.42,0.96-0.63,1.43c-0.25,0.54-0.5,1.07-0.76,1.61
				c-0.23,0.47-0.45,0.95-0.69,1.42c-0.27,0.54-0.55,1.07-0.84,1.61c-0.24,0.46-0.48,0.92-0.74,1.38c-0.38,0.7-0.79,1.39-1.19,2.08
				c-0.2,0.35-0.4,0.7-0.61,1.04c-0.59,0.98-1.2,1.97-1.84,2.94c-0.03,0.05-0.07,0.11-0.1,0.16c-0.67,1.03-1.37,2.05-2.09,3.08
				c-0.23,0.33-0.48,0.66-0.72,0.99c-0.5,0.69-0.99,1.38-1.51,2.06c-0.25,0.33-0.52,0.66-0.77,1c-0.62,0.8-1.25,1.6-1.9,2.39
				c-0.3,0.37-0.61,0.74-0.91,1.1c-0.68,0.81-1.38,1.62-2.09,2.43c-0.26,0.29-0.51,0.59-0.77,0.88c-0.97,1.08-1.97,2.15-3.01,3.22
				c-0.2,0.2-0.41,0.41-0.61,0.61c-0.85,0.87-1.72,1.73-2.61,2.59c-0.45,0.43-0.9,0.86-1.36,1.3c-0.44,0.42-0.89,0.84-1.34,1.25
				c-0.51,0.47-1.03,0.93-1.55,1.39c-0.46,0.41-0.92,0.82-1.4,1.23c-0.53,0.46-1.08,0.92-1.62,1.38c-0.48,0.4-0.96,0.81-1.45,1.21
				c-0.56,0.46-1.12,0.91-1.69,1.37c-0.5,0.4-0.99,0.8-1.5,1.19c-0.58,0.46-1.18,0.91-1.78,1.36c-0.51,0.39-1.01,0.77-1.53,1.16
				c-0.61,0.45-1.24,0.9-1.86,1.35c-0.52,0.38-1.04,0.76-1.57,1.13c-0.64,0.45-1.3,0.9-1.96,1.35c-0.53,0.36-1.06,0.73-1.6,1.09
				c-0.68,0.46-1.38,0.91-2.07,1.36c-0.53,0.35-1.06,0.7-1.6,1.04c-0.82,0.52-1.65,1.04-2.49,1.55c-0.42,0.26-0.83,0.52-1.26,0.78
				c-1.27,0.77-2.56,1.53-3.86,2.29c-2.39,1.38-4.84,2.71-7.32,4.02c-0.69,0.36-1.39,0.72-2.09,1.08c-2.01,1.03-4.04,2.04-6.09,3.02
				c-0.55,0.27-1.1,0.54-1.66,0.8c-2.55,1.19-5.13,2.35-7.75,3.47c-0.6,0.26-1.22,0.5-1.82,0.76c-2.12,0.89-4.26,1.75-6.41,2.58
				c-0.75,0.29-1.49,0.58-2.25,0.87c-2.71,1.02-5.45,2.02-8.22,2.97c-0.13,0.04-0.26,0.08-0.38,0.13c-2.54,0.86-5.12,1.68-7.7,2.48
				c-1.58,0.49-3.17,0.95-4.76,1.41c-1.61,0.47-3.21,0.94-4.83,1.38c-1.61,0.44-3.23,0.85-4.85,1.27c-1.63,0.42-3.27,0.84-4.92,1.24
				c-1.63,0.39-3.28,0.76-4.92,1.12c-1.67,0.37-3.33,0.75-5.01,1.09c-1.66,0.34-3.32,0.66-4.99,0.98c-1.86,0.36-3.71,0.72-5.58,1.04
				c-0.75,0.13-1.51,0.26-2.26,0.39c-2.92,0.49-5.86,0.96-8.81,1.38c-0.1,0.01-0.19,0.03-0.29,0.04c-3.04,0.43-6.09,0.81-9.15,1.16
				c-0.76,0.09-1.53,0.17-2.29,0.26c-1.73,0.19-3.46,0.34-5.19,0.51c-2.31,0.22-4.62,0.42-6.93,0.59c-1.51,0.11-3.02,0.22-4.53,0.32
				c-2.32,0.15-4.64,0.27-6.96,0.37c-1.52,0.07-3.04,0.14-4.56,0.19c-1.98,0.07-3.97,0.1-5.95,0.14c-1.62,0.03-3.24,0.06-4.86,0.07
				c-2.01,0.01-4.02-0.01-6.04-0.04c-1.6-0.02-3.21-0.03-4.81-0.07c-1.86-0.05-3.72-0.12-5.57-0.2c-1.68-0.07-3.36-0.12-5.03-0.21
				c-1.86-0.1-3.72-0.23-5.57-0.35c-1.66-0.11-3.33-0.21-4.99-0.35c-1.86-0.15-3.71-0.34-5.56-0.51c-1.64-0.16-3.29-0.3-4.93-0.48
				c-1.86-0.2-3.71-0.45-5.56-0.68c-1.61-0.2-3.23-0.39-4.83-0.61c-2.25-0.31-4.48-0.67-6.72-1.03c-1.28-0.2-2.56-0.38-3.83-0.6
				c-2.75-0.47-5.48-0.99-8.21-1.52c-0.74-0.14-1.48-0.27-2.22-0.42c-3.63-0.73-7.23-1.53-10.8-2.38c-1.09-0.26-2.16-0.55-3.24-0.82
				c-2.48-0.62-4.95-1.24-7.39-1.92c-2.69-0.74-5.37-1.49-8.01-2.3c-0.02,0-0.03-0.01-0.05-0.01c-2.83-0.86-5.61-1.78-8.39-2.71
				c-0.77-0.26-1.53-0.53-2.29-0.79c-2.24-0.78-4.47-1.59-6.67-2.42c-0.57-0.21-1.14-0.42-1.7-0.63c-1.73-0.67-3.43-1.38-5.13-2.08
				c-1.26-0.52-2.53-1.01-3.78-1.55c-1.73-0.74-3.43-1.53-5.13-2.31c-1.15-0.52-2.31-1.02-3.44-1.56c-1.86-0.88-3.67-1.81-5.49-2.74
				c-0.93-0.47-1.89-0.92-2.81-1.41c-2.72-1.43-5.39-2.9-8.02-4.43c-42.32-24.6-63.51-56.78-63.6-89.02L31.16,500H468.94z"/>
			<path class="st2" d="M405.1,245.56c-85.2-49.51-223.79-49.51-309.54,0c-85.77,49.52-86.22,129.79-1.02,179.3
				c85.21,49.52,223.8,49.52,309.56,0C489.86,375.36,490.31,295.08,405.1,245.56z"/>
		</g>
		<g>
			<linearGradient id="SVGID_2_" gradientUnits="userSpaceOnUse" x1="312.7972" y1="369.9558" x2="447.845" y2="369.9558">
				<stop  offset="0" style="stop-color:#3162DE"/>
				<stop  offset="1" style="stop-color:#6376F2"/>
			</linearGradient>
			<path class="st3" d="M412.84,331.94c2.38-1.37,6.22-1.37,8.58,0l24.66,14.33c2.36,1.37,2.35,3.6-0.03,4.97l-98.25,56.73
				c-2.38,1.38-6.22,1.37-8.58,0l-24.66-14.33c-2.36-1.37-2.35-3.59,0.03-4.97L412.84,331.94z"/>
			<g>
				<polygon class="st0" points="409.76,344.47 416.34,345.75 421.93,343.34 421.82,347.37 427.49,349.7 420.84,350.9 
					418.75,354.75 420.83,350.9 				"/>
			</g>
			<path class="st4" d="M336.2,386.92l6.59,1.29l5.59-2.41l-0.11,4.03l5.67,2.33l-6.66,1.2l-2.08,3.85l-4.01-3.29l-6.96,0.05
				l4.19-3.23L336.2,386.92z M393.58,358.89l-4.19,3.23l6.96-0.05l4,3.3l2.09-3.85l6.66-1.2l-5.68-2.33l0.11-4.03l-5.59,2.41
				l-6.59-1.3L393.58,358.89z M375.19,369.51l-4.19,3.23l6.96-0.05l4,3.3l2.09-3.85l6.66-1.2l-5.68-2.33l0.11-4.03l-5.59,2.41
				l-6.59-1.29L375.19,369.51z M411.96,348.28l-4.18,3.23l6.96-0.05l4,3.3l2.08-3.85l-11.08-6.44L411.96,348.28z M356.8,380.12
				l-4.19,3.23l6.96-0.05l4,3.3l2.09-3.85l6.66-1.2l-5.68-2.33l0.11-4.03l-5.59,2.41l-6.59-1.29L356.8,380.12z"/>
		</g>
		<g>
			<g>
				<g>
					<path class="st5" d="M301.99,236.89c1.99-1.15,5.19-1.15,7.17,0l111.83,64.99c1.98,1.15,1.99,3.01-0.01,4.16L231.98,415.17
						c-1.99,1.15-5.21,1.14-7.19-0.01l-111.83-64.99c-1.98-1.15-1.97-3,0.02-4.15L301.99,236.89z"/>
					<path class="st0" d="M304.33,223.95c1.99-1.15,5.19-1.15,7.17,0l111.83,64.99c1.98,1.15,1.99,3.01-0.01,4.16L234.32,402.23
						c-1.99,1.15-5.21,1.14-7.19-0.01L115.3,337.23c-1.98-1.15-1.97-3,0.02-4.15L304.33,223.95z"/>
					<path class="st0" d="M307.99,200.8l-0.06-19.38l-0.01-4.17l-0.09-33.06l-0.15-53.79c-0.01-3.43-2.43-4.81-5.42-3.09
						L116.85,194.36c-2.98,1.72-5.38,5.89-5.37,9.31l0.37,131.44l196.2-113.28L307.99,200.8z"/>
					<path class="st6" d="M424.82,291.02c0,0.76-0.49,1.51-1.49,2.09L234.32,402.23c-1.99,1.15-5.21,1.14-7.19-0.01L115.3,337.23
						c-0.12-0.07-0.2-0.15-0.31-0.22c-0.13-0.09-0.26-0.18-0.37-0.27c-0.16-0.14-0.29-0.29-0.4-0.44c-0.02-0.03-0.04-0.05-0.06-0.08
						c-0.1-0.15-0.19-0.31-0.24-0.47c-0.01-0.02-0.01-0.04-0.02-0.05c-0.05-0.17-0.09-0.35-0.09-0.52l0.02,8.28
						c0,0.01,0,0.03,0,0.04c0,0.1,0.01,0.19,0.03,0.29c0.01,0.06,0.03,0.13,0.05,0.19c0.01,0.02,0.01,0.04,0.02,0.05
						c0,0.01,0.01,0.03,0.01,0.04c0.04,0.1,0.08,0.19,0.13,0.29c0.03,0.05,0.06,0.1,0.1,0.14c0.02,0.03,0.04,0.05,0.06,0.08
						c0.02,0.03,0.03,0.05,0.05,0.08c0.09,0.12,0.2,0.23,0.31,0.34c0.01,0.01,0.02,0.02,0.03,0.03c0.11,0.1,0.24,0.18,0.37,0.27
						c0.08,0.06,0.15,0.12,0.24,0.18c0.02,0.01,0.04,0.02,0.06,0.04l111.83,64.99c1.98,1.15,5.19,1.16,7.19,0.01l189.01-109.12
						c1-0.58,1.5-1.33,1.49-2.09L424.82,291.02z"/>
					<path class="st7" d="M273.48,336.84c-0.99,0.57-0.99,1.51-0.01,2.08l23.46,13.63c0.98,0.57,2.6,0.57,3.59,0l42.12-24.25
						c1-0.58,0.99-1.51,0.01-2.08l-23.46-13.63c-0.98-0.57-2.58-0.58-3.59,0L273.48,336.84z M155.08,333.75
						c-0.48,0.27-1.25,0.27-1.72,0l-7.8-4.53c-0.47-0.27-0.47-0.72,0.01-1l7.85-4.53c0.48-0.27,1.25-0.27,1.72,0l7.8,4.53
						c0.47,0.27,0.47,0.72-0.01,1L155.08,333.75z M142.12,330.21c0.48-0.27,1.25-0.27,1.72,0l7.8,4.53c0.47,0.27,0.47,0.72-0.01,1
						l-7.85,4.53c-0.48,0.27-1.25,0.27-1.72,0l-7.8-4.53c-0.47-0.27-0.47-0.72,0.01-1L142.12,330.21z M160.46,332.63
						c0.48-0.27,1.25-0.27,1.72,0l7.8,4.53c0.47,0.27,0.47,0.72-0.01,1l-14.97,8.64c-0.48,0.27-1.25,0.27-1.72,0l-7.8-4.53
						c-0.47-0.27-0.47-0.72,0.01-1L160.46,332.63z M164.57,343.26c0.48-0.27,1.25-0.27,1.72,0l7.8,4.53c0.47,0.27,0.47,0.72-0.01,1
						l-7.85,4.53c-0.48,0.27-1.25,0.27-1.72,0l-7.8-4.53c-0.47-0.27-0.47-0.72,0.01-1L164.57,343.26z M175.82,346.8l-7.8-4.53
						c-0.47-0.27-0.47-0.72,0.01-1l7.85-4.53c0.48-0.27,1.25-0.27,1.72,0l7.8,4.53c0.47,0.27,0.47,0.72-0.01,1l-7.85,4.53
						C177.06,347.08,176.29,347.08,175.82,346.8z M254.25,315.52c-0.48,0.27-1.25,0.27-1.72,0l-7.8-4.53
						c-0.47-0.27-0.47-0.72,0.01-1l7.85-4.53c0.48-0.27,1.25-0.27,1.72,0l7.8,4.53c0.47,0.27,0.47,0.72-0.01,1L254.25,315.52z
						 M340.99,280.43c0.48-0.27,1.24-0.28,1.72,0l7.81,4.54c0.47,0.27,0.46,0.72-0.01,0.99l-7.85,4.53c-0.48,0.27-1.24,0.28-1.72,0
						l-7.81-4.54c-0.47-0.27-0.46-0.72,0.01-0.99L340.99,280.43z M299.52,253.34c-0.47-0.27-0.47-0.72,0.01-1l7.85-4.53
						c0.48-0.27,1.25-0.27,1.72,0l7.8,4.53c0.47,0.27,0.47,0.72-0.01,1l-7.85,4.53c-0.48,0.27-1.25,0.27-1.72,0L299.52,253.34z
						 M320.35,251.34c-0.48,0.27-1.25,0.27-1.72,0l-7.8-4.53c-0.47-0.27-0.47-0.72,0.01-1l7.85-4.53c0.48-0.27,1.25-0.27,1.72,0
						l7.8,4.53c0.47,0.27,0.47,0.72-0.01,1L320.35,251.34z M302,248.93c-0.48,0.27-1.24,0.27-1.72,0l-7.8-4.53
						c-0.47-0.27-0.48-0.72,0-0.99l14.98-8.65c0.48-0.27,1.25-0.27,1.72,0l7.8,4.53c0.47,0.27,0.47,0.72-0.01,1L302,248.93z
						 M290.7,255.46c-0.48,0.27-1.25,0.27-1.72,0l-7.8-4.53c-0.47-0.27-0.47-0.72,0.01-1l7.85-4.53c0.48-0.27,1.24-0.27,1.72,0
						l7.8,4.53c0.47,0.27,0.48,0.72,0,0.99L290.7,255.46z M279.4,261.98c-0.48,0.27-1.25,0.27-1.72,0l-7.8-4.53
						c-0.47-0.27-0.47-0.72,0.01-1l7.85-4.53c0.48-0.27,1.25-0.27,1.72,0l7.8,4.53c0.47,0.27,0.47,0.72-0.01,1L279.4,261.98z
						 M296.08,254.33c0.48-0.27,1.25-0.27,1.72,0l7.8,4.53c0.47,0.27,0.47,0.72-0.01,1l-7.85,4.53c-0.48,0.27-1.25,0.27-1.72,0
						l-7.8-4.53c-0.47-0.27-0.47-0.72,0.01-1L296.08,254.33z M284.73,270.92l-7.8-4.53c-0.47-0.27-0.48-0.72,0-0.99l7.85-4.53
						c0.48-0.28,1.25-0.27,1.72,0l7.8,4.53c0.47,0.27,0.48,0.72-0.01,1l-7.85,4.53C285.97,271.19,285.2,271.19,284.73,270.92z
						 M309.71,269.5c0.47,0.27,0.47,0.72-0.01,1l-7.85,4.53c-0.48,0.27-1.25,0.27-1.72,0l-7.8-4.53c-0.47-0.27-0.47-0.72,0.01-1
						l7.85-4.53c0.48-0.27,1.25-0.27,1.72,0L309.71,269.5z M268.1,268.51c-0.48,0.27-1.25,0.27-1.72,0l-7.8-4.53
						c-0.47-0.27-0.47-0.72,0.01-1l7.85-4.53c0.48-0.27,1.25-0.27,1.72,0l7.8,4.53c0.47,0.27,0.47,0.72-0.01,1L268.1,268.51z
						 M313.16,268.51c-0.48,0.27-1.25,0.27-1.72,0l-7.8-4.53c-0.47-0.27-0.47-0.72,0.01-1l7.85-4.53c0.48-0.27,1.24-0.27,1.72,0
						l7.8,4.53c0.47,0.27,0.48,0.72,0,0.99L313.16,268.51z M324.45,261.98c-0.48,0.27-1.24,0.27-1.72,0l-7.8-4.53
						c-0.47-0.27-0.48-0.72,0-0.99l14.98-8.65c0.48-0.27,1.25-0.27,1.72,0l7.8,4.53c0.47,0.27,0.47,0.72-0.01,1L324.45,261.98z
						 M333.36,269.85c-0.48,0.27-1.24,0.27-1.72,0l-7.8-4.53c-0.47-0.27-0.48-0.72,0-0.99l17.3-9.99c0.48-0.27,1.25-0.27,1.72,0
						l7.8,4.53c0.47,0.27,0.47,0.72-0.01,1L333.36,269.85z M322.06,276.37c-0.48,0.27-1.24,0.27-1.72,0l-7.8-4.53
						c-0.47-0.27-0.48-0.72,0-0.99l7.86-4.54c0.48-0.27,1.24-0.27,1.72,0l7.8,4.53c0.47,0.27,0.48,0.72,0,0.99L322.06,276.37z
						 M363.6,267.38c0.48-0.27,1.24-0.28,1.72,0l7.81,4.54c0.47,0.27,0.46,0.72-0.01,0.99l-7.85,4.53c-0.48,0.27-1.24,0.28-1.72,0
						l-7.81-4.54c-0.47-0.27-0.46-0.72,0.01-0.99L363.6,267.38z M338.84,279.69c-0.48,0.27-1.24,0.27-1.71,0l-7.8-4.53
						c-0.47-0.27-0.48-0.72,0-0.99l23.04-13.3c0.48-0.27,1.25-0.27,1.72,0l7.8,4.53c0.47,0.27,0.46,0.72-0.01,0.99L338.84,279.69z
						 M256.79,275.03c-0.48,0.27-1.25,0.27-1.72,0l-7.8-4.53c-0.47-0.27-0.47-0.72,0.01-1l7.85-4.53c0.48-0.27,1.25-0.27,1.72,0
						l7.8,4.53c0.47,0.27,0.47,0.72-0.01,1L256.79,275.03z M273.48,267.38c0.48-0.27,1.24-0.27,1.72,0l7.8,4.53
						c0.47,0.27,0.48,0.72,0,0.99l-7.86,4.54c-0.48,0.27-1.24,0.27-1.72,0l-7.8-4.53c-0.47-0.27-0.48-0.72,0-0.99L273.48,267.38z
						 M245.49,281.56c-0.48,0.27-1.25,0.27-1.72,0l-7.8-4.53c-0.47-0.27-0.47-0.72,0.01-1l7.85-4.53c0.48-0.27,1.25-0.27,1.72,0
						l7.8,4.53c0.47,0.27,0.47,0.72-0.01,1L245.49,281.56z M288.83,281.56l-7.8-4.53c-0.47-0.27-0.47-0.72,0.01-1l7.85-4.53
						c0.48-0.27,1.25-0.27,1.72,0l7.8,4.53c0.47,0.27,0.47,0.72-0.01,1l-7.85,4.53C290.08,281.83,289.3,281.83,288.83,281.56z
						 M301.24,278.36c-0.47-0.27-0.48-0.72,0.01-1l7.85-4.53c0.48-0.27,1.24-0.27,1.72,0l7.8,4.53c0.47,0.27,0.48,0.72,0,0.99
						l-7.85,4.53c-0.48,0.28-1.25,0.27-1.72,0L301.24,278.36z M262.18,273.9c0.48-0.27,1.24-0.27,1.72,0l7.8,4.53
						c0.47,0.27,0.48,0.72,0,0.99l-7.86,4.54c-0.48,0.27-1.24,0.27-1.72,0l-7.8-4.53c-0.47-0.27-0.48-0.72,0-0.99L262.18,273.9z
						 M327.54,286.21c-0.48,0.27-1.24,0.27-1.71,0l-7.8-4.53c-0.47-0.27-0.48-0.72,0-0.99l7.86-4.54c0.48-0.27,1.24-0.27,1.72,0
						l7.8,4.53c0.47,0.27,0.47,0.72-0.01,0.99L327.54,286.21z M234.19,288.08c-0.48,0.27-1.25,0.27-1.72,0l-7.8-4.53
						c-0.47-0.27-0.47-0.72,0.01-1l7.85-4.53c0.48-0.27,1.25-0.27,1.72,0l7.8,4.53c0.47,0.27,0.47,0.72-0.01,1L234.19,288.08z
						 M299.46,289.42c-0.48,0.27-1.25,0.27-1.72,0l-7.8-4.53c-0.47-0.27-0.47-0.72,0.01-1l7.85-4.53c0.48-0.27,1.25-0.27,1.72,0
						l7.8,4.53c0.47,0.27,0.47,0.72-0.01,1L299.46,289.42z M250.88,280.43c0.48-0.27,1.24-0.27,1.72,0l7.8,4.53
						c0.47,0.27,0.48,0.72,0,0.99l-7.85,4.53c-0.48,0.28-1.25,0.27-1.72,0l-7.8-4.53c-0.47-0.27-0.48-0.72,0.01-1L250.88,280.43z
						 M314.58,282.67c0.48-0.27,1.24-0.27,1.72,0l7.8,4.53c0.47,0.27,0.47,0.72-0.01,0.99l-7.86,4.54c-0.48,0.27-1.24,0.27-1.71,0
						l-7.8-4.53c-0.47-0.27-0.48-0.72,0-0.99L314.58,282.67z M222.89,294.61c-0.48,0.27-1.25,0.27-1.72,0l-7.8-4.53
						c-0.47-0.27-0.47-0.72,0.01-1l7.85-4.53c0.48-0.27,1.25-0.27,1.72,0l7.8,4.53c0.47,0.27,0.47,0.72-0.01,1L222.89,294.61z
						 M275.81,289.07c0.47,0.27,0.47,0.72-0.01,1l-7.85,4.53c-0.48,0.27-1.25,0.27-1.72,0l-7.8-4.53c-0.47-0.27-0.47-0.72,0.01-1
						l7.85-4.53c0.48-0.27,1.25-0.27,1.72,0L275.81,289.07z M278.63,291.41c-0.47-0.27-0.47-0.72,0.01-1l7.85-4.53
						c0.48-0.27,1.25-0.27,1.72,0l7.8,4.53c0.47,0.27,0.47,0.72-0.01,1l-7.85,4.53c-0.48,0.27-1.25,0.27-1.72,0L278.63,291.41z
						 M239.52,297.02l-7.8-4.53c-0.47-0.27-0.48-0.72,0.01-1l7.85-4.53c0.48-0.27,1.25-0.27,1.72,0l7.8,4.53
						c0.47,0.27,0.47,0.72-0.01,1l-7.85,4.53C240.76,297.29,239.99,297.29,239.52,297.02z M329.69,286.96
						c0.48-0.28,1.24-0.28,1.72,0l7.81,4.54c0.47,0.27,0.47,0.72-0.01,0.99l-10.15,5.86c-0.48,0.27-1.24,0.28-1.72,0l-7.81-4.54
						c-0.47-0.27-0.46-0.72,0.01-0.99L329.69,286.96z M304.94,299.26c-0.48,0.28-1.24,0.28-1.72,0l-7.8-4.53
						c-0.47-0.27-0.48-0.72,0.01-1l7.85-4.53c0.48-0.27,1.24-0.27,1.72,0l7.8,4.53c0.47,0.27,0.47,0.72-0.01,0.99L304.94,299.26z
						 M211.59,301.13c-0.48,0.27-1.24,0.27-1.72,0l-7.8-4.53c-0.47-0.27-0.48-0.72,0-0.99l7.85-4.53c0.48-0.28,1.25-0.27,1.72,0
						l7.8,4.53c0.47,0.27,0.48,0.72-0.01,1L211.59,301.13z M264.51,295.6c0.47,0.27,0.47,0.72-0.01,1l-7.85,4.53
						c-0.48,0.27-1.25,0.27-1.72,0l-7.8-4.53c-0.47-0.27-0.47-0.72,0.01-1l7.85-4.53c0.48-0.27,1.25-0.27,1.72,0L264.51,295.6z
						 M267.33,297.94c-0.47-0.27-0.47-0.72,0.01-1l7.85-4.53c0.48-0.27,1.25-0.27,1.72,0l7.8,4.53c0.47,0.27,0.47,0.72-0.01,1
						l-7.85,4.53c-0.48,0.27-1.25,0.27-1.72,0L267.33,297.94z M228.27,293.48c0.48-0.27,1.25-0.27,1.72,0l7.8,4.53
						c0.47,0.27,0.47,0.72-0.01,1l-7.85,4.53c-0.48,0.27-1.25,0.27-1.72,0l-7.8-4.53c-0.47-0.27-0.47-0.72,0.01-1L228.27,293.48z
						 M293.64,305.78c-0.48,0.27-1.24,0.28-1.72,0l-7.8-4.53c-0.47-0.27-0.47-0.72,0.01-1l7.85-4.53c0.48-0.27,1.25-0.27,1.72,0
						l7.8,4.53c0.47,0.27,0.47,0.72-0.01,0.99L293.64,305.78z M200.29,307.66c-0.48,0.27-1.24,0.27-1.72,0l-7.8-4.53
						c-0.47-0.27-0.48-0.72,0-0.99l7.86-4.54c0.48-0.27,1.24-0.27,1.72,0l7.8,4.53c0.47,0.27,0.48,0.72,0,0.99L200.29,307.66z
						 M243.62,307.66l-7.8-4.53c-0.47-0.27-0.47-0.72,0.01-1l7.85-4.53c0.48-0.27,1.25-0.27,1.72,0l7.8,4.53
						c0.47,0.27,0.47,0.72-0.01,1l-7.85,4.53C244.87,307.93,244.1,307.93,243.62,307.66z M256.03,304.46
						c-0.47-0.27-0.47-0.72,0.01-1l7.85-4.53c0.48-0.27,1.25-0.27,1.72,0l7.8,4.53c0.47,0.27,0.47,0.72-0.01,1l-7.85,4.53
						c-0.48,0.27-1.25,0.27-1.72,0L256.03,304.46z M261.51,314.3c-0.47-0.27-0.47-0.72,0.01-1l7.85-4.53c0.48-0.27,1.25-0.27,1.72,0
						l7.8,4.53c0.47,0.27,0.47,0.72-0.01,1l-7.85,4.53c-0.48,0.27-1.25,0.27-1.72,0L261.51,314.3z M216.97,300
						c0.48-0.27,1.25-0.27,1.72,0l7.8,4.53c0.47,0.27,0.47,0.72-0.01,1l-7.85,4.53c-0.48,0.27-1.25,0.27-1.72,0l-7.8-4.53
						c-0.47-0.27-0.47-0.72,0.01-1L216.97,300z M282.33,312.31c-0.48,0.27-1.24,0.28-1.72,0l-7.8-4.53c-0.47-0.27-0.47-0.72,0.01-1
						l7.85-4.53c0.48-0.27,1.25-0.27,1.72,0l7.8,4.53c0.47,0.27,0.46,0.72-0.01,0.99L282.33,312.31z M188.98,314.18
						c-0.48,0.27-1.24,0.27-1.72,0l-7.8-4.53c-0.47-0.27-0.48-0.72,0-0.99l7.86-4.54c0.48-0.27,1.24-0.27,1.72,0l7.8,4.53
						c0.47,0.27,0.48,0.72,0,0.99L188.98,314.18z M241.9,308.65c0.47,0.27,0.48,0.72-0.01,1l-7.85,4.53c-0.48,0.27-1.24,0.27-1.72,0
						l-7.8-4.53c-0.47-0.27-0.48-0.72,0-0.99l7.85-4.53c0.48-0.28,1.25-0.27,1.72,0L241.9,308.65z M205.61,316.59l-7.8-4.53
						c-0.47-0.27-0.47-0.72,0.01-1l7.85-4.53c0.48-0.27,1.25-0.27,1.72,0l7.8,4.53c0.47,0.27,0.47,0.72-0.01,1l-7.85,4.53
						C206.86,316.87,206.09,316.87,205.61,316.59z M177.69,320.7c-0.48,0.28-1.25,0.27-1.72,0l-7.8-4.53
						c-0.47-0.27-0.48-0.72,0.01-1l7.85-4.53c0.48-0.27,1.24-0.27,1.72,0l7.8,4.53c0.47,0.27,0.48,0.72,0,0.99L177.69,320.7z
						 M230.6,315.17c0.47,0.27,0.48,0.72,0,0.99l-7.86,4.54c-0.48,0.27-1.24,0.27-1.72,0l-7.8-4.53c-0.47-0.27-0.48-0.72,0-0.99
						l7.86-4.54c0.48-0.27,1.24-0.27,1.72,0L230.6,315.17z M233.43,317.51c-0.47-0.27-0.47-0.72,0.01-1l7.85-4.53
						c0.48-0.27,1.25-0.27,1.72,0l7.8,4.53c0.47,0.27,0.47,0.72-0.01,1l-7.85,4.53c-0.48,0.27-1.25,0.27-1.72,0L233.43,317.51z
						 M194.31,323.12l-7.8-4.53c-0.47-0.27-0.47-0.72,0.01-1l7.85-4.53c0.48-0.27,1.25-0.27,1.72,0l7.8,4.53
						c0.47,0.27,0.47,0.72-0.01,1l-7.85,4.53C195.56,323.39,194.79,323.39,194.31,323.12z M259.73,325.36
						c-0.48,0.27-1.24,0.28-1.72,0l-7.8-4.53c-0.47-0.27-0.47-0.72,0.01-1l7.85-4.53c0.48-0.27,1.25-0.27,1.72,0l7.8,4.53
						c0.47,0.27,0.47,0.72-0.01,0.99L259.73,325.36z M209.72,327.23l-7.8-4.53c-0.47-0.27-0.48-0.72,0-0.99l7.86-4.54
						c0.48-0.27,1.24-0.27,1.72,0l7.8,4.53c0.47,0.27,0.48,0.72,0,0.99l-7.86,4.54C210.96,327.51,210.2,327.5,209.72,327.23z
						 M222.13,324.03c-0.47-0.27-0.48-0.72,0-0.99l7.85-4.53c0.48-0.27,1.25-0.27,1.72,0l7.8,4.53c0.47,0.27,0.47,0.72-0.01,1
						l-7.85,4.53c-0.48,0.27-1.24,0.27-1.72,0L222.13,324.03z M248.43,331.88c-0.48,0.27-1.24,0.28-1.72,0l-7.8-4.53
						c-0.47-0.27-0.47-0.72,0.01-1l7.85-4.53c0.48-0.27,1.25-0.27,1.72,0l7.8,4.53c0.47,0.27,0.46,0.72-0.01,0.99L248.43,331.88z
						 M220.35,335.1c-0.48,0.27-1.24,0.27-1.72,0l-7.8-4.53c-0.47-0.27-0.48-0.72,0-0.99l7.86-4.54c0.48-0.27,1.24-0.27,1.72,0
						l7.8,4.53c0.47,0.27,0.48,0.72,0,0.99L220.35,335.1z M316.09,294.81c0.48-0.27,1.24-0.28,1.72,0l7.81,4.54
						c0.47,0.27,0.46,0.72-0.01,0.99l-61.93,35.75c-0.48,0.27-1.24,0.28-1.72,0l-7.81-4.54c-0.47-0.27-0.46-0.72,0.01-0.99
						L316.09,294.81z M227.62,332.88l7.85-4.53c0.48-0.27,1.25-0.27,1.72,0l7.8,4.53c0.47,0.27,0.46,0.72-0.01,0.99l-7.85,4.53
						c-0.48,0.27-1.24,0.28-1.72,0l-7.8-4.53C227.14,333.6,227.14,333.16,227.62,332.88z M171.77,326.1c0.48-0.27,1.25-0.27,1.72,0
						l7.8,4.53c0.47,0.27,0.47,0.72-0.01,1l-7.85,4.53c-0.48,0.27-1.25,0.27-1.72,0l-7.8-4.53c-0.47-0.27-0.47-0.72,0.01-1
						L171.77,326.1z M198.42,333.75l-7.8-4.53c-0.47-0.27-0.48-0.72,0.01-1l7.85-4.53c0.48-0.27,1.24-0.27,1.72,0l7.8,4.53
						c0.47,0.27,0.48,0.72,0,0.99l-7.85,4.53C199.66,334.03,198.89,334.03,198.42,333.75z M188.84,340.28
						c-0.48,0.28-1.25,0.27-1.72,0l-7.8-4.53c-0.47-0.27-0.48-0.72,0.01-1l7.85-4.53c0.48-0.27,1.25-0.27,1.72,0l7.8,4.53
						c0.47,0.27,0.47,0.72-0.01,1L188.84,340.28z M216.9,336.09c0.47,0.27,0.48,0.72,0,0.99l-7.86,4.54c-0.48,0.27-1.24,0.27-1.72,0
						l-7.8-4.53c-0.47-0.27-0.48-0.72,0-0.99l7.86-4.54c0.48-0.27,1.24-0.27,1.72,0L216.9,336.09z M197.8,338.08l7.8,4.53
						c0.47,0.27,0.48,0.72,0,0.99l-7.86,4.54c-0.48,0.27-1.24,0.27-1.72,0l-7.8-4.53c-0.47-0.27-0.48-0.72,0-0.99l7.86-4.54
						C196.56,337.8,197.33,337.81,197.8,338.08z M184.78,344.6c0.48-0.27,1.24-0.27,1.72,0l7.8,4.53c0.47,0.27,0.48,0.72,0,0.99
						l-16.83,9.72c-0.48,0.27-1.25,0.27-1.72,0l-7.8-4.53c-0.47-0.27-0.47-0.72,0.01-1L184.78,344.6z M201.57,347.92
						c0.48-0.27,1.24-0.27,1.72,0l7.76,4.51c0.47,0.27,0.48,0.72,0,0.99l-22.39,12.93c-0.48,0.27-1.25,0.27-1.72,0l-7.76-4.51
						c-0.47-0.27-0.47-0.72,0.01-1L201.57,347.92z M237.12,340.4c0.48-0.27,1.24-0.27,1.71,0l7.81,4.54
						c0.47,0.27,0.47,0.72-0.01,0.99l-7.8,4.5c-0.48,0.27-1.24,0.27-1.71,0l-7.81-4.54c-0.47-0.27-0.47-0.72,0.01-0.99L237.12,340.4
						z M224.17,334.87c0.48-0.27,1.25-0.27,1.72,0l7.8,4.53c0.47,0.27,0.46,0.72-0.01,0.99l-7.58,4.38
						c-0.11,0.03-0.21,0.07-0.31,0.13c-0.48,0.27-1.24,0.27-1.72,0l-7.76-4.51c-0.47-0.27-0.48-0.72,0-0.99L224.17,334.87z
						 M212.87,341.39c0.48-0.27,1.24-0.27,1.72,0l7.76,4.51c0.47,0.27,0.48,0.72,0,0.99l-7.86,4.54c-0.48,0.27-1.24,0.27-1.72,0
						l-7.76-4.51c-0.47-0.27-0.48-0.72,0-0.99L212.87,341.39z M225.84,347.01c0.48-0.27,1.25-0.27,1.72,0l7.66,4.45
						c0.47,0.27,0.46,0.72-0.01,0.99l-9.38,5.42c-0.48,0.27-1.24,0.28-1.72,0l-7.66-4.45c-0.47-0.27-0.47-0.72,0.01-1L225.84,347.01
						z M218.22,357.59c0.48-0.27,1.25-0.27,1.72,0l2.33,1.35c0.47,0.27,0.46,0.72-0.01,0.99l-9.38,5.42c-0.48,0.27-1.24,0.27-1.71,0
						l-2.33-1.35c-0.47-0.27-0.48-0.72,0-0.99L218.22,357.59z M212.88,354.49c0.48-0.27,1.25-0.27,1.72,0l2.33,1.35
						c0.47,0.27,0.46,0.72-0.01,0.99l-9.38,5.42c-0.48,0.27-1.24,0.27-1.71,0l-2.33-1.35c-0.47-0.27-0.48-0.72,0-0.99L212.88,354.49
						z M199.93,361.96c0.48-0.27,1.24-0.27,1.72,0l7.66,4.45c0.47,0.27,0.47,0.72-0.01,0.99l-9.38,5.42c-0.48,0.27-1.24,0.28-1.72,0
						l-7.66-4.45c-0.47-0.27-0.47-0.72,0.01-1L199.93,361.96z M250.72,332.55c0.48-0.27,1.24-0.28,1.72,0l7.81,4.54
						c0.47,0.27,0.46,0.72-0.01,0.99l-10.15,5.86c-0.48,0.27-1.24,0.27-1.71,0l-7.81-4.54c-0.47-0.27-0.47-0.72,0.01-0.99
						L250.72,332.55z M352.3,273.91c0.48-0.27,1.24-0.28,1.72,0l7.81,4.54c0.47,0.27,0.46,0.72-0.01,0.99l-7.85,4.53
						c-0.48,0.27-1.24,0.28-1.72,0l-7.81-4.54c-0.47-0.27-0.46-0.72,0.01-0.99L352.3,273.91z M287.11,282.55
						c0.47,0.27,0.47,0.72-0.01,1l-7.85,4.53c-0.48,0.27-1.25,0.27-1.72,0l-7.8-4.53c-0.47-0.27-0.47-0.72,0.01-1l7.85-4.53
						c0.48-0.27,1.25-0.27,1.72,0L287.11,282.55z M166.39,327.23c-0.48,0.28-1.25,0.27-1.72,0l-7.8-4.53
						c-0.47-0.27-0.48-0.72,0.01-1l7.85-4.53c0.48-0.27,1.25-0.27,1.72,0l7.8,4.53c0.47,0.27,0.47,0.72-0.01,1L166.39,327.23z"/>
					<polygon class="st5" points="268.79,244.49 151.11,312.44 153.44,314.07 271.13,246.12 					"/>
				</g>
				<g>
					<g>
						<linearGradient id="SVGID_3_" gradientUnits="userSpaceOnUse" x1="179.1426" y1="134.5246" x2="234.6949" y2="270.8212">
							<stop  offset="0" style="stop-color:#3162DE"/>
							<stop  offset="1" style="stop-color:#6376F2"/>
						</linearGradient>
						<polygon class="st8" points="298.7,99.72 299.03,216.66 120.82,319.56 120.49,202.61 						"/>
					</g>
					<g>
						<linearGradient id="SVGID_4_" gradientUnits="userSpaceOnUse" x1="179.1426" y1="134.5246" x2="234.6949" y2="270.8212">
							<stop  offset="0" style="stop-color:#3162DE"/>
							<stop  offset="1" style="stop-color:#6376F2"/>
						</linearGradient>
						<polygon class="st9" points="298.7,99.72 299.03,216.66 120.82,319.56 120.49,202.61 						"/>
					</g>
					<path class="st10" d="M296.28,188.21l0.04,13.15l-4.69,8.65l16.36-9.22l-0.06-19.38l-3.44-2.42l-4.33,2.5
						C298.01,182.73,296.28,185.74,296.28,188.21z"/>
					<g>
						
							<ellipse transform="matrix(0.5025 -0.8646 0.8646 0.5025 -74.5033 286.7089)" class="st11" cx="211.86" cy="208.09" rx="51.62" ry="29.9"/>
						<g>
							<g>
								<path class="st0" d="M213,223.37c2.84-1.64,4.86-0.49,4.87,2.92c0.01,3.34-2,6.97-4.84,8.61c-2.78,1.6-4.87,0.34-4.87-3
									C208.15,228.49,210.22,224.97,213,223.37z"/>
							</g>
							<g>
								<path class="st0" d="M213.2,183.22c8.08-4.67,13.27-3.23,13.29,4.82c0.03,11.17-9.75,17.91-9.72,26.91l-7.32,4.23
									c-0.03-11.39,8.11-16.53,8.09-24.14c-0.01-3.49-1.97-3.95-5.19-2.09c-3.47,2-5.43,5.39-5.6,10.07l-7.51,4.26
									C199.4,197.08,204.62,188.18,213.2,183.22z"/>
							</g>
						</g>
					</g>
					<polygon class="st10" points="299.03,216.66 299.02,214.9 120.81,317.8 120.82,319.56 					"/>
					<path class="st6" d="M303.45,86.78c0.3-0.1,0.6-0.16,0.88-0.19c0.03,0,0.05-0.01,0.08-0.01c0.3-0.02,0.6-0.01,0.87,0.04
						c0.01,0,0.03,0.01,0.04,0.01c0.28,0.06,0.54,0.16,0.78,0.29l-4.35-2.59c-0.01-0.01-0.02-0.01-0.03-0.02
						c-0.09-0.05-0.18-0.09-0.27-0.13c-0.09-0.04-0.19-0.07-0.28-0.1c-0.06-0.02-0.13-0.03-0.19-0.04c-0.01,0-0.03-0.01-0.04-0.01
						c-0.02,0-0.04-0.01-0.07-0.02c-0.11-0.02-0.21-0.03-0.33-0.04c-0.12-0.01-0.24-0.01-0.36,0c-0.04,0-0.08,0.01-0.12,0.01
						c-0.03,0-0.05,0.01-0.08,0.01c-0.07,0.01-0.13,0.01-0.2,0.02c-0.16,0.02-0.31,0.06-0.47,0.1c-0.07,0.02-0.14,0.05-0.21,0.07
						c-0.06,0.02-0.13,0.04-0.19,0.07c-0.08,0.03-0.16,0.05-0.24,0.08c-0.25,0.1-0.5,0.23-0.76,0.38L112.51,191.76
						c-0.35,0.2-0.69,0.44-1.02,0.7c-0.11,0.09-0.21,0.18-0.31,0.27c-0.16,0.14-0.32,0.27-0.48,0.42c-0.07,0.07-0.13,0.15-0.2,0.22
						c-0.06,0.06-0.12,0.13-0.18,0.19c-0.07,0.07-0.14,0.14-0.21,0.22c-0.15,0.17-0.3,0.35-0.44,0.53c-0.05,0.06-0.1,0.13-0.14,0.19
						c-0.03,0.03-0.05,0.07-0.07,0.1c-0.05,0.06-0.1,0.13-0.14,0.19c-0.11,0.15-0.21,0.31-0.31,0.47c-0.1,0.15-0.19,0.3-0.28,0.46
						c-0.01,0.01-0.01,0.03-0.02,0.04c-0.01,0.01-0.01,0.02-0.02,0.04c-0.07,0.13-0.14,0.25-0.21,0.38
						c-0.08,0.15-0.16,0.3-0.23,0.46c-0.07,0.14-0.13,0.28-0.19,0.42c0,0.01-0.01,0.01-0.01,0.02c0,0.01-0.01,0.02-0.01,0.02
						c-0.07,0.16-0.14,0.32-0.2,0.48c-0.07,0.17-0.13,0.34-0.18,0.51c-0.03,0.09-0.05,0.17-0.08,0.26
						c-0.01,0.04-0.02,0.07-0.03,0.11c-0.02,0.06-0.04,0.12-0.06,0.18c-0.06,0.21-0.11,0.41-0.15,0.62
						c-0.03,0.13-0.04,0.25-0.06,0.38c-0.01,0.06-0.02,0.13-0.03,0.19c-0.01,0.06-0.02,0.12-0.03,0.18
						c-0.05,0.36-0.07,0.71-0.07,1.06l0.36,127.82c0.01,2.24,1.2,4.3,3.13,5.43l1.22,0.78l-0.37-131.43c0-0.4,0.04-0.82,0.1-1.24
						c0.01-0.06,0.02-0.13,0.03-0.19c0.07-0.39,0.16-0.78,0.27-1.18c0.01-0.04,0.02-0.07,0.03-0.11c0.13-0.43,0.29-0.85,0.47-1.28
						c0-0.01,0.01-0.01,0.01-0.02c0.19-0.43,0.4-0.85,0.64-1.26c0.01-0.01,0.01-0.02,0.02-0.04c0.23-0.4,0.48-0.78,0.75-1.15
						c0.02-0.03,0.05-0.07,0.07-0.1c0.25-0.33,0.51-0.65,0.79-0.95c0.06-0.06,0.12-0.13,0.18-0.19c0.22-0.23,0.45-0.43,0.68-0.63
						c0.1-0.09,0.21-0.19,0.31-0.28c0.33-0.26,0.67-0.5,1.02-0.7L302.27,87.31c0.34-0.2,0.67-0.34,1-0.46
						C303.33,86.83,303.39,86.8,303.45,86.78z"/>
				</g>
			</g>
			<g>
				<path class="st5" d="M111.68,275.91l41.72-24.09c3.02-1.74,5.46-5.98,5.45-9.44l0-1.32l-47.19,27.24L111.68,275.91z"/>
				<path class="st10" d="M120.68,270.72l32.73-18.9c3.02-1.74,5.46-5.98,5.45-9.44l0-1.32l-38.19,22.05L120.68,270.72z"/>
				<path class="st4" d="M156.38,198.28c3.02-1.74,5.47-0.33,5.48,3.14l0.06,22.01l-68.7,39.67l-0.06-22.01
					c-0.01-3.47,2.43-7.7,5.46-9.45L156.38,198.28z M98.75,279.64l57.77-33.35c3.02-1.74,5.46-5.98,5.45-9.44l0-1.32l-68.7,39.67
					l0,1.32C93.27,279.98,95.72,281.39,98.75,279.64z"/>
				<g>
					<polygon class="st10" points="161.92,223.42 161.96,235.53 93.25,275.19 93.22,263.09 					"/>
				</g>
				<g>
					<path class="st10" d="M139.64,212.92c2.22-1.28,4.15-1.01,5.21,0.43c-0.54,1.35-0.85,2.73-0.85,4.03
						c0,1.29,0.33,2.31,0.87,3.03c-1.05,2.66-2.97,5.15-5.19,6.43c-3.35,1.93-6.07,0.38-6.08-3.46
						C133.59,219.54,136.29,214.86,139.64,212.92z"/>
				</g>
				<g>
					<path class="st0" d="M150.04,206.92c3.35-1.93,6.07-0.38,6.08,3.46c0.01,3.85-2.69,8.53-6.04,10.46
						c-2.22,1.28-4.15,1.01-5.21-0.43c-0.55-0.73-0.87-1.74-0.87-3.03c0-1.29,0.31-2.68,0.85-4.03
						C145.9,210.69,147.82,208.2,150.04,206.92z"/>
				</g>
			</g>
		</g>
		<path class="st0" d="M221.27,96.25L221.24,88c-0.02-6.84-4.86-9.61-10.82-6.17l-24.58,14.19c-5.95,3.44-10.77,11.78-10.75,18.62
			l0.02,8.25c0.02,6.85,4.87,9.61,10.82,6.17l22.44-12.96l2.15,2.62l-0.01-3.85C216.48,111.44,221.29,103.1,221.27,96.25z
			 M187.94,114.68c-1.59,0.92-2.89,0.18-2.89-1.65c-0.01-1.83,1.28-4.06,2.87-4.97c1.59-0.92,2.89-0.18,2.89,1.65
			C190.82,111.53,189.53,113.76,187.94,114.68z M197.85,108.95c-1.59,0.92-2.89,0.18-2.89-1.65c-0.01-1.83,1.28-4.06,2.87-4.97
			c1.59-0.92,2.89-0.18,2.89,1.65C200.73,105.81,199.44,108.04,197.85,108.95z M208.44,102.84c-1.59,0.92-2.89,0.18-2.89-1.65
			c-0.01-1.83,1.28-4.06,2.87-4.97c1.59-0.92,2.89-0.18,2.89,1.65C211.31,99.7,210.03,101.93,208.44,102.84z"/>
		<g>
			<linearGradient id="SVGID_5_" gradientUnits="userSpaceOnUse" x1="117.8059" y1="128.4417" x2="145.3277" y2="109.2936">
				<stop  offset="0" style="stop-color:#97B2E3"/>
				<stop  offset="1" style="stop-color:#FFFFFF"/>
			</linearGradient>
			<path class="st12" d="M139.22,105.64c-2.99-1.74-7.14-1.49-11.72,1.15c-1.33,0.77-2.63,1.73-3.87,2.79L141.57,120
				c1.24-1.06,2.54-2.02,3.87-2.79c4.58-2.64,8.72-2.89,11.72-1.15L139.22,105.64z"/>
			<linearGradient id="SVGID_6_" gradientUnits="userSpaceOnUse" x1="84.3992" y1="166.0813" x2="101.1732" y2="143.8503">
				<stop  offset="0" style="stop-color:#ADC4EB"/>
				<stop  offset="0.5427" style="stop-color:#C8DBF5"/>
				<stop  offset="1" style="stop-color:#E2F1FF"/>
			</linearGradient>
			<path class="st13" d="M101.67,150.2l-17.94-10.42c-5.72,5.03-9.93,13.43-9.91,20.55c0.01,4.2,1.5,7.16,3.89,8.55l17.94,10.42
				c-2.39-1.39-3.88-4.35-3.89-8.55C91.73,163.63,95.94,155.23,101.67,150.2z"/>
			<path class="st0" d="M121.78,113.33c9.63-5.56,17.7-2.49,19.79,6.67c1.24-1.06,2.54-2.02,3.87-2.79
				c9.09-5.25,16.49-1.04,16.51,9.4c0.03,10.45-7.32,23.17-16.41,28.42l-40.43,23.34c-7.36,4.25-13.34,0.83-13.37-7.62
				c-0.02-7.12,4.19-15.52,9.91-20.55c-0.05-0.61-0.08-1.23-0.09-1.89C101.54,135.46,110.59,119.79,121.78,113.33z"/>
			<linearGradient id="SVGID_7_" gradientUnits="userSpaceOnUse" x1="84.2864" y1="144.3656" x2="121.3027" y2="107.0759">
				<stop  offset="0.0389" style="stop-color:#DDEEFE"/>
				<stop  offset="1" style="stop-color:#FFFFFF"/>
			</linearGradient>
			<path class="st14" d="M118.25,101.5c-3.68-2.14-8.78-1.84-14.41,1.41c-11.19,6.46-20.23,22.13-20.2,34.98
				c0,0.65,0.04,1.28,0.09,1.89l17.94,10.42c-0.05-0.61-0.08-1.23-0.09-1.89c-0.04-12.86,9.01-28.52,20.2-34.98
				c5.63-3.25,10.72-3.55,14.41-1.41L118.25,101.5z"/>
		</g>
		<g>
			<g>
				<path class="st0" d="M168.63,257.52c1.54-0.89,2.8-0.18,2.8,1.6l0.04,14.24c0.01,1.77-1.24,3.93-2.79,4.82l-30.92,17.85
					l3.37-6.21l-0.04-13.19c-0.01-1.77,1.24-3.93,2.79-4.82L168.63,257.52z"/>
			</g>
			<path class="st10" d="M169.7,257.15c0.01,0,0.03,0,0.04,0c0.16-0.01,0.31-0.01,0.45,0.02c0.01,0,0.02,0,0.02,0.01
				c0.14,0.03,0.28,0.08,0.4,0.15l0,0c0,0,0,0,0,0l-2.22-1.29c-0.01,0-0.01-0.01-0.02-0.01c-0.05-0.03-0.09-0.05-0.14-0.07
				c-0.05-0.02-0.1-0.04-0.15-0.05c-0.03-0.01-0.07-0.02-0.1-0.02c-0.01,0-0.02,0-0.02-0.01c-0.01,0-0.02-0.01-0.03-0.01
				c-0.05-0.01-0.11-0.02-0.17-0.02c-0.06,0-0.12,0-0.18,0c-0.02,0-0.04,0-0.06,0.01c-0.01,0-0.03,0-0.04,0
				c-0.04,0-0.07,0.01-0.11,0.01c-0.08,0.01-0.16,0.03-0.25,0.05c-0.03,0.01-0.07,0.03-0.11,0.04c-0.03,0.01-0.06,0.02-0.1,0.03
				c-0.04,0.02-0.08,0.03-0.12,0.04c-0.13,0.05-0.26,0.12-0.39,0.19l-24.75,14.29c-0.18,0.1-0.35,0.23-0.53,0.36
				c-0.06,0.04-0.11,0.1-0.16,0.14c-0.08,0.07-0.17,0.14-0.25,0.22c-0.04,0.04-0.07,0.08-0.11,0.11c-0.03,0.03-0.06,0.07-0.09,0.1
				c-0.04,0.04-0.07,0.07-0.11,0.11c-0.08,0.09-0.15,0.18-0.23,0.28c-0.03,0.03-0.05,0.07-0.07,0.1c-0.01,0.02-0.03,0.03-0.04,0.05
				c-0.02,0.03-0.05,0.07-0.07,0.1c-0.06,0.08-0.11,0.16-0.16,0.24c-0.05,0.08-0.1,0.16-0.14,0.24c0,0.01-0.01,0.01-0.01,0.02
				c0,0.01-0.01,0.01-0.01,0.02c-0.04,0.07-0.07,0.13-0.11,0.2c-0.04,0.08-0.08,0.16-0.12,0.24c-0.03,0.07-0.07,0.14-0.1,0.22
				c0,0,0,0.01-0.01,0.01c0,0,0,0.01-0.01,0.01c-0.04,0.08-0.07,0.17-0.1,0.25c-0.03,0.09-0.07,0.18-0.09,0.26
				c-0.01,0.04-0.03,0.09-0.04,0.13c-0.01,0.02-0.01,0.04-0.02,0.06c-0.01,0.03-0.02,0.06-0.03,0.1c-0.03,0.11-0.06,0.21-0.08,0.32
				c-0.01,0.06-0.02,0.13-0.03,0.19c-0.01,0.03-0.01,0.07-0.02,0.1c0,0.03-0.01,0.06-0.02,0.09c-0.02,0.19-0.04,0.37-0.04,0.55
				l0.04,13.19l-3.37,6.21l2.22,1.29l3.37-6.21l-0.04-13.19c0-0.21,0.02-0.42,0.05-0.64c0-0.03,0.01-0.07,0.02-0.1
				c0.03-0.2,0.08-0.41,0.14-0.61c0.01-0.02,0.01-0.04,0.02-0.06c0.07-0.22,0.15-0.44,0.24-0.66c0,0,0-0.01,0.01-0.01
				c0.1-0.22,0.21-0.44,0.33-0.65c0-0.01,0.01-0.01,0.01-0.02c0.12-0.21,0.25-0.41,0.39-0.6c0.01-0.02,0.03-0.03,0.04-0.05
				c0.13-0.17,0.27-0.34,0.41-0.49c0.03-0.03,0.06-0.07,0.09-0.1c0.11-0.12,0.23-0.22,0.35-0.33c0.05-0.05,0.11-0.1,0.16-0.14
				c0.17-0.14,0.35-0.26,0.53-0.36l24.75-14.29c0.18-0.1,0.35-0.18,0.52-0.24c0.03-0.01,0.07-0.02,0.1-0.03
				C169.4,257.2,169.55,257.16,169.7,257.15z"/>
		</g>
		<g class="st15">
			<g>
				<path class="st10" d="M271.59,202.4l4.69-8.65l-0.08-26.82c-0.01-2.47,1.73-5.48,3.88-6.72l27.75-16.02l0.09,33.06l0.01,4.17
					L271.59,202.4z"/>
			</g>
			<g>
				<path class="st4" d="M319.16,136.89c2.15-1.24,3.9-0.24,3.9,2.22l0.08,28.29c0.01,2.47-1.73,5.48-3.88,6.72l-43.07,24.86
					l4.69-8.65l-0.08-26.82c-0.01-2.47,1.73-5.48,3.88-6.72L319.16,136.89z"/>
			</g>
			<path class="st6" d="M320.65,136.37c0.02,0,0.04,0,0.06-0.01c0.22-0.02,0.43-0.01,0.63,0.03c0.01,0,0.02,0.01,0.03,0.01
				c0.2,0.04,0.39,0.11,0.56,0.21l0,0c0,0,0,0,0,0l-3.09-1.8c-0.01,0-0.01-0.01-0.02-0.01c-0.06-0.04-0.13-0.07-0.2-0.1
				c-0.07-0.03-0.14-0.05-0.21-0.07c-0.05-0.01-0.09-0.02-0.14-0.03c-0.01,0-0.02-0.01-0.03-0.01c-0.02,0-0.03-0.01-0.05-0.01
				c-0.08-0.01-0.15-0.02-0.24-0.03c-0.08-0.01-0.17-0.01-0.26,0c-0.03,0-0.06,0.01-0.09,0.01c-0.02,0-0.04,0-0.06,0.01
				c-0.05,0-0.1,0.01-0.15,0.01c-0.11,0.02-0.23,0.04-0.34,0.07c-0.05,0.01-0.1,0.04-0.15,0.05c-0.05,0.01-0.09,0.03-0.14,0.05
				c-0.06,0.02-0.11,0.04-0.17,0.06c-0.18,0.07-0.36,0.16-0.54,0.27l-34.47,19.9c-0.25,0.14-0.49,0.32-0.73,0.51
				c-0.08,0.06-0.15,0.13-0.23,0.2c-0.11,0.1-0.23,0.19-0.34,0.3c-0.05,0.05-0.1,0.11-0.15,0.16c-0.04,0.05-0.09,0.09-0.13,0.14
				c-0.05,0.05-0.1,0.1-0.15,0.16c-0.11,0.12-0.21,0.25-0.32,0.38c-0.04,0.05-0.07,0.09-0.1,0.14c-0.02,0.02-0.04,0.05-0.05,0.07
				c-0.03,0.05-0.07,0.09-0.1,0.14c-0.08,0.11-0.15,0.22-0.23,0.34c-0.07,0.11-0.14,0.22-0.2,0.33c-0.01,0.01-0.01,0.02-0.02,0.03
				c0,0.01-0.01,0.02-0.01,0.02c-0.05,0.09-0.1,0.18-0.15,0.27c-0.06,0.11-0.11,0.22-0.17,0.33c-0.05,0.1-0.09,0.2-0.14,0.3
				c0,0.01-0.01,0.01-0.01,0.02c0,0.01-0.01,0.01-0.01,0.02c-0.05,0.12-0.1,0.23-0.14,0.35c-0.05,0.12-0.09,0.24-0.13,0.37
				c-0.02,0.06-0.04,0.12-0.06,0.18c-0.01,0.03-0.02,0.05-0.02,0.08c-0.01,0.04-0.03,0.09-0.04,0.13c-0.04,0.15-0.08,0.3-0.11,0.45
				c-0.02,0.09-0.03,0.18-0.05,0.27c-0.01,0.05-0.02,0.09-0.02,0.14c-0.01,0.04-0.02,0.09-0.02,0.13c-0.03,0.26-0.05,0.51-0.05,0.76
				l0.08,26.82l-4.69,8.65l3.09,1.8l4.69-8.65l-0.08-26.82c0-0.29,0.03-0.59,0.07-0.89c0.01-0.05,0.02-0.09,0.02-0.14
				c0.05-0.28,0.11-0.56,0.2-0.85c0.01-0.03,0.02-0.05,0.02-0.08c0.09-0.31,0.21-0.62,0.34-0.92c0-0.01,0.01-0.01,0.01-0.02
				c0.14-0.31,0.29-0.61,0.46-0.91c0-0.01,0.01-0.02,0.01-0.03c0.17-0.29,0.35-0.57,0.54-0.83c0.02-0.02,0.04-0.05,0.05-0.07
				c0.18-0.24,0.37-0.47,0.57-0.68c0.04-0.05,0.09-0.09,0.13-0.14c0.16-0.16,0.32-0.31,0.49-0.46c0.08-0.07,0.15-0.14,0.23-0.2
				c0.24-0.19,0.48-0.36,0.73-0.51l34.47-19.9c0.25-0.14,0.48-0.25,0.72-0.33c0.05-0.02,0.09-0.03,0.14-0.05
				C320.23,136.44,320.44,136.39,320.65,136.37z"/>
		</g>
		<g class="st15">
			<g>
				<path class="st0" d="M339.24,158.17c2.15-1.24,3.9-0.24,3.9,2.22l0.04,14.61c0.01,2.47-1.73,5.48-3.88,6.72l-43.07,24.86
					l4.69-8.65l-0.04-13.15c-0.01-2.47,1.73-5.48,3.88-6.72L339.24,158.17z"/>
			</g>
			<path class="st6" d="M340.09,157.8c0.22-0.07,0.43-0.12,0.64-0.14c0.02,0,0.04,0,0.06-0.01c0.22-0.02,0.43-0.01,0.63,0.03
				c0.01,0,0.02,0.01,0.03,0.01c0.2,0.04,0.39,0.11,0.56,0.21l-3.09-1.8c-0.01,0-0.01-0.01-0.02-0.01c-0.06-0.04-0.13-0.07-0.2-0.1
				c-0.07-0.03-0.14-0.05-0.21-0.07c-0.05-0.01-0.09-0.02-0.14-0.03c-0.01,0-0.02-0.01-0.03-0.01c-0.02,0-0.03-0.01-0.05-0.01
				c-0.08-0.01-0.15-0.02-0.24-0.03c-0.08-0.01-0.17-0.01-0.26,0c-0.03,0-0.06,0.01-0.09,0.01c-0.02,0-0.04,0-0.06,0.01
				c-0.05,0-0.1,0.01-0.15,0.01c-0.11,0.02-0.23,0.04-0.34,0.07c-0.05,0.01-0.1,0.04-0.15,0.05c-0.05,0.01-0.09,0.03-0.14,0.05
				c-0.06,0.02-0.11,0.04-0.17,0.06c-0.18,0.07-0.36,0.16-0.54,0.27l-34.47,19.9c-0.25,0.14-0.49,0.32-0.73,0.51
				c-0.08,0.06-0.15,0.13-0.23,0.2c-0.11,0.1-0.23,0.19-0.34,0.3c-0.05,0.05-0.1,0.11-0.15,0.16c-0.04,0.05-0.09,0.09-0.13,0.14
				c-0.05,0.05-0.1,0.1-0.15,0.16c-0.11,0.12-0.21,0.25-0.32,0.38c-0.04,0.05-0.07,0.09-0.1,0.14c-0.02,0.02-0.04,0.05-0.05,0.07
				c-0.03,0.05-0.07,0.09-0.1,0.14c-0.08,0.11-0.15,0.22-0.23,0.34c-0.07,0.11-0.14,0.22-0.2,0.33c-0.01,0.01-0.01,0.02-0.02,0.03
				c-0.01,0.01-0.01,0.02-0.01,0.03c-0.05,0.09-0.1,0.18-0.15,0.27c-0.06,0.11-0.11,0.22-0.17,0.33c-0.05,0.1-0.09,0.2-0.14,0.3
				c0,0.01-0.01,0.01-0.01,0.02c0,0.01-0.01,0.01-0.01,0.02c-0.05,0.12-0.1,0.23-0.14,0.35c-0.05,0.12-0.09,0.24-0.13,0.37
				c-0.02,0.06-0.04,0.12-0.06,0.18c-0.01,0.03-0.02,0.05-0.02,0.08c-0.01,0.04-0.03,0.09-0.04,0.13c-0.04,0.15-0.08,0.3-0.11,0.45
				c-0.02,0.09-0.03,0.18-0.05,0.27c-0.01,0.05-0.02,0.09-0.02,0.14c-0.01,0.04-0.02,0.09-0.02,0.13c-0.03,0.26-0.05,0.51-0.05,0.76
				l0.04,13.15l-4.69,8.65l3.09,1.8l4.69-8.65l-0.04-13.15c0-0.29,0.03-0.59,0.07-0.89c0.01-0.05,0.02-0.09,0.02-0.14
				c0.05-0.28,0.11-0.56,0.2-0.85c0.01-0.03,0.02-0.05,0.02-0.08c0.09-0.31,0.21-0.62,0.34-0.92c0-0.01,0.01-0.01,0.01-0.02
				c0.14-0.31,0.29-0.61,0.46-0.91c0.01-0.01,0.01-0.02,0.01-0.03c0.17-0.29,0.35-0.57,0.54-0.83c0.02-0.02,0.04-0.05,0.05-0.07
				c0.18-0.24,0.37-0.47,0.57-0.68c0.04-0.05,0.09-0.09,0.13-0.14c0.16-0.16,0.32-0.31,0.49-0.46c0.07-0.07,0.15-0.14,0.22-0.2
				c0.24-0.19,0.48-0.36,0.73-0.51l34.47-19.9c0.25-0.14,0.48-0.25,0.72-0.33C340,157.83,340.05,157.81,340.09,157.8z"/>
		</g>
		<path class="st11" d="M258.05,66.55c-0.01-2.97-2.11-4.16-4.7-2.67l-17.11,9.88c-2.58,1.49-4.67,5.11-4.66,8.07l0.02,6.91
			c0.01,2.97,2.11,4.17,4.7,2.68l0.01,4.08l3.54-6.14l13.56-7.83c2.58-1.49,4.67-5.11,4.66-8.08L258.05,66.55z M238.98,82.82
			c-0.93,0.54-1.68,0.11-1.69-0.96c0-1.07,0.75-2.36,1.67-2.9c0.93-0.54,1.68-0.11,1.69,0.96
			C240.66,80.98,239.91,82.28,238.98,82.82z M245.41,79.1c-0.93,0.54-1.68,0.11-1.69-0.96c0-1.07,0.75-2.36,1.67-2.9
			c0.93-0.54,1.68-0.11,1.69,0.96C247.09,77.27,246.34,78.57,245.41,79.1z M251.85,75.38c-0.93,0.54-1.68,0.11-1.69-0.96
			c0-1.07,0.75-2.36,1.67-2.9c0.93-0.54,1.68-0.1,1.68,0.96C253.53,73.55,252.78,74.85,251.85,75.38z"/>
		<g>
			<path class="st4" d="M193.02,418.9l-37.78-21.81c-0.96-0.55-2.51-0.55-3.46,0l-20.97,12.19c-0.95,0.55-0.94,1.45,0.02,2
				l37.78,21.81c0.96,0.55,2.5,0.55,3.45,0l20.97-12.19C193.97,420.35,193.98,419.45,193.02,418.9z"/>
			<linearGradient id="SVGID_8_" gradientUnits="userSpaceOnUse" x1="142.7959" y1="410.2722" x2="164.7555" y2="410.2722">
				<stop  offset="0" style="stop-color:#3162DE"/>
				<stop  offset="1" style="stop-color:#6376F2"/>
			</linearGradient>
			<path class="st16" d="M146.04,414.77c-4.3-2.48-4.33-6.51-0.05-8.99c4.28-2.48,11.23-2.48,15.53,0c4.3,2.48,4.33,6.51,0.05,8.99
				C157.29,417.25,150.34,417.25,146.04,414.77z"/>
			<path class="st0" d="M177.63,423.76c-0.86,0.5-2.25,0.49-3.11,0l-10.23-5.91c-0.86-0.5-0.87-1.3-0.01-1.8
				c0.86-0.5,2.24-0.5,3.11,0l10.23,5.91C178.47,422.45,178.48,423.26,177.63,423.76z"/>
			<path class="st0" d="M183.81,420.16c-0.86,0.5-2.25,0.49-3.11,0l-10.23-5.91c-0.86-0.5-0.87-1.3-0.01-1.8
				c0.86-0.5,2.25-0.5,3.11,0l10.23,5.91C184.66,418.85,184.67,419.66,183.81,420.16z"/>
		</g>
		<g>
			<g>
				<linearGradient id="SVGID_9_" gradientUnits="userSpaceOnUse" x1="248.2137" y1="168.8134" x2="285.5051" y2="17.1611">
					<stop  offset="0.0131" style="stop-color:#00F1FF"/>
					<stop  offset="0.1081" style="stop-color:#05EAFF"/>
					<stop  offset="0.2499" style="stop-color:#12D5FF"/>
					<stop  offset="0.4211" style="stop-color:#28B4FF"/>
					<stop  offset="0.615" style="stop-color:#4686FF"/>
					<stop  offset="0.8251" style="stop-color:#6C4BFF"/>
					<stop  offset="1" style="stop-color:#9015FF"/>
				</linearGradient>
				<path class="st17" d="M284.06,97.71c0-0.03,0-0.05-0.01-0.08c0-0.02-0.01-0.03-0.01-0.05c0,0,0,0,0,0c0-0.01,0-0.01,0-0.02
					c0-0.03-0.01-0.05-0.02-0.08c-0.01-0.03-0.01-0.06-0.02-0.08c-0.01-0.03-0.02-0.06-0.03-0.09c-0.01-0.03-0.03-0.06-0.04-0.09
					c-0.02-0.04-0.04-0.08-0.06-0.11c-0.02-0.03-0.04-0.06-0.06-0.08c-0.07-0.08-0.14-0.15-0.22-0.19l-5.07-2.94
					c0.08,0.05,0.16,0.11,0.22,0.19c0.12,0.15,0.19,0.34,0.23,0.56c0,0,0,0,0,0c0.03,0.22,0.03,0.46-0.02,0.72c0,0,0,0,0,0.01
					c-0.04,0.26-0.13,0.53-0.25,0.8c0,0,0,0,0,0c-0.12,0.27-0.27,0.53-0.46,0.78l-16.89,22.08c-0.13,0.17-0.28,0.33-0.42,0.46
					c0,0,0,0,0,0c-0.15,0.13-0.3,0.24-0.45,0.33c-0.15,0.09-0.3,0.15-0.45,0.19c0,0,0,0,0,0c-0.15,0.04-0.29,0.05-0.42,0.03
					l-16.96-2.53c-0.11-0.02-0.2-0.05-0.28-0.1l5.07,2.94c0.04,0.02,0.08,0.04,0.13,0.06c0.04,0.01,0.07,0.02,0.11,0.03
					c0.01,0,0.03,0,0.04,0.01l16.96,2.53c0.02,0,0.03,0,0.05,0.01c0.03,0,0.06,0,0.08,0c0.03,0,0.05,0,0.08,0
					c0.02,0,0.05,0,0.07-0.01c0.02,0,0.05-0.01,0.07-0.01c0.02,0,0.04-0.01,0.07-0.01c0,0,0,0,0,0c0,0,0,0,0,0
					c0.02-0.01,0.05-0.01,0.07-0.02c0.02-0.01,0.04-0.01,0.07-0.02c0.02-0.01,0.04-0.02,0.07-0.02c0.02-0.01,0.04-0.02,0.07-0.03
					c0.02-0.01,0.04-0.02,0.07-0.03c0.02-0.01,0.04-0.02,0.06-0.03c0.02-0.01,0.03-0.02,0.05-0.03c0.01,0,0.01-0.01,0.02-0.01
					c0.02-0.01,0.04-0.03,0.07-0.04c0.02-0.01,0.05-0.03,0.07-0.05c0.02-0.02,0.05-0.03,0.07-0.05c0.02-0.02,0.05-0.04,0.07-0.06
					c0.02-0.02,0.05-0.04,0.07-0.06c0.02-0.02,0.05-0.04,0.07-0.06c0,0,0,0,0.01,0c0,0,0,0,0,0c0.02-0.02,0.04-0.04,0.06-0.06
					c0.02-0.02,0.05-0.05,0.07-0.07c0.02-0.02,0.05-0.05,0.07-0.07c0.02-0.02,0.04-0.05,0.06-0.07c0.02-0.02,0.04-0.05,0.06-0.07
					c0.02-0.03,0.04-0.05,0.06-0.08c0.01-0.01,0.02-0.02,0.03-0.04l16.89-22.08c0.01-0.02,0.03-0.03,0.04-0.05
					c0.04-0.05,0.07-0.1,0.1-0.15c0.04-0.06,0.08-0.12,0.11-0.18c0.03-0.05,0.06-0.1,0.09-0.15c0.02-0.03,0.04-0.07,0.05-0.1
					c0.01-0.03,0.03-0.05,0.04-0.08c0.01-0.02,0.02-0.05,0.03-0.07c0,0,0,0,0,0c0,0,0,0,0-0.01c0.01-0.03,0.02-0.05,0.03-0.08
					c0.01-0.03,0.02-0.05,0.03-0.08c0.01-0.03,0.02-0.05,0.03-0.08c0.01-0.03,0.02-0.05,0.03-0.08c0.01-0.03,0.02-0.06,0.03-0.09
					c0.01-0.03,0.02-0.06,0.03-0.09c0.01-0.03,0.02-0.06,0.02-0.09c0.01-0.03,0.01-0.06,0.02-0.09c0.01-0.03,0.01-0.06,0.02-0.09
					c0-0.01,0-0.03,0.01-0.04c0,0,0,0,0,0c0-0.01,0-0.03,0.01-0.04c0-0.03,0.01-0.05,0.01-0.08c0-0.03,0.01-0.05,0.01-0.08
					c0-0.03,0-0.05,0.01-0.08c0-0.03,0-0.05,0-0.08c0-0.03,0-0.05,0-0.08c0-0.03,0-0.05,0-0.08
					C284.07,97.76,284.06,97.74,284.06,97.71z"/>
				<path class="st10" d="M287.63,84.46c0.44-0.15,0.87-0.24,1.28-0.28c0.01,0,0.02,0,0.03,0c0.41-0.03,0.8-0.01,1.17,0.06
					c0.01,0,0.01,0,0.02,0c0.37,0.08,0.71,0.21,1.02,0.39l-5.07-2.94c-0.18-0.1-0.37-0.19-0.56-0.26c-0.15-0.05-0.3-0.09-0.46-0.13
					c-0.01,0-0.01,0-0.02,0c0,0-0.01,0-0.01,0c-0.13-0.03-0.26-0.05-0.4-0.06c-0.12-0.01-0.24-0.02-0.36-0.02
					c-0.11,0-0.22,0-0.33,0.01c-0.02,0-0.05,0.01-0.07,0.01c-0.01,0-0.02,0-0.03,0c-0.07,0.01-0.14,0.01-0.21,0.02
					c-0.1,0.01-0.2,0.03-0.3,0.05c-0.09,0.02-0.19,0.04-0.28,0.06c-0.09,0.02-0.19,0.05-0.29,0.08c-0.07,0.02-0.13,0.04-0.2,0.07
					c-0.01,0-0.01,0-0.02,0.01c-0.02,0.01-0.04,0.01-0.06,0.02c-0.09,0.03-0.19,0.07-0.28,0.11c-0.09,0.04-0.18,0.08-0.28,0.12
					c-0.09,0.04-0.19,0.09-0.28,0.13c-0.09,0.05-0.19,0.1-0.28,0.15c-0.07,0.04-0.15,0.08-0.22,0.12l-41.46,23.93
					c-0.02,0.01-0.05,0.03-0.07,0.04c-0.1,0.06-0.2,0.12-0.29,0.18c-0.1,0.06-0.2,0.13-0.29,0.19c-0.1,0.07-0.2,0.14-0.3,0.21
					c-0.1,0.07-0.2,0.15-0.3,0.23c-0.04,0.03-0.08,0.07-0.12,0.1c-0.01,0.01-0.02,0.02-0.03,0.03c-0.05,0.04-0.1,0.08-0.15,0.12
					c-0.1,0.09-0.21,0.18-0.31,0.27c-0.1,0.09-0.2,0.19-0.3,0.28c-0.1,0.09-0.2,0.19-0.29,0.29c-0.07,0.07-0.14,0.15-0.21,0.22
					c-0.01,0.01-0.02,0.02-0.02,0.02c-0.02,0.02-0.03,0.03-0.05,0.05c-0.09,0.1-0.18,0.2-0.27,0.3c-0.09,0.1-0.18,0.21-0.27,0.31
					c-0.09,0.11-0.18,0.22-0.27,0.33c-0.1,0.13-0.21,0.27-0.31,0.4c0,0,0,0,0,0c0,0,0,0-0.01,0.01c-0.15,0.2-0.29,0.41-0.43,0.61
					c-0.18,0.27-0.35,0.55-0.52,0.83c-0.02,0.03-0.03,0.06-0.05,0.09c-0.01,0.03-0.03,0.05-0.04,0.08
					c-0.08,0.15-0.17,0.29-0.25,0.44c-0.07,0.14-0.15,0.28-0.22,0.42c-0.06,0.12-0.12,0.24-0.18,0.37c-0.05,0.11-0.1,0.22-0.15,0.34
					c-0.01,0.02-0.01,0.03-0.02,0.05c0,0.01-0.01,0.01-0.01,0.02c-0.04,0.09-0.08,0.17-0.11,0.26c-0.05,0.11-0.09,0.22-0.14,0.34
					c-0.04,0.11-0.09,0.23-0.13,0.34c-0.04,0.12-0.08,0.24-0.12,0.35c-0.04,0.12-0.08,0.24-0.12,0.36
					c-0.01,0.02-0.01,0.03-0.01,0.05c0,0.01,0,0.02-0.01,0.02c-0.03,0.1-0.06,0.2-0.09,0.29c-0.03,0.12-0.07,0.25-0.1,0.37
					c-0.03,0.12-0.06,0.24-0.08,0.36c-0.03,0.12-0.05,0.24-0.07,0.36c-0.02,0.11-0.04,0.22-0.06,0.33c0,0,0,0,0,0.01
					c0,0.01,0,0.01,0,0.02c-0.02,0.12-0.03,0.23-0.05,0.35c-0.01,0.11-0.03,0.23-0.04,0.34c-0.01,0.11-0.02,0.22-0.03,0.34
					c-0.01,0.11-0.01,0.22-0.02,0.33c0,0.1,0,0.21,0,0.31l0.07,25.86c0,0.01,0,0.01,0,0.02c0,0.11,0,0.22,0.01,0.33
					c0,0.11,0.01,0.22,0.02,0.33c0.01,0.11,0.02,0.22,0.03,0.33c0.01,0.11,0.03,0.22,0.05,0.33c0.01,0.05,0.02,0.1,0.03,0.15
					c0,0.01,0.01,0.03,0.01,0.04c0.01,0.05,0.02,0.1,0.03,0.15c0.03,0.12,0.06,0.24,0.09,0.35c0.04,0.13,0.08,0.25,0.12,0.36
					c0.05,0.12,0.1,0.24,0.15,0.36c0,0.01,0,0.01,0.01,0.02c0,0.01,0,0.01,0.01,0.02c0.08,0.17,0.17,0.33,0.26,0.47
					c0.07,0.12,0.17,0.21,0.25,0.31c0.06,0.08,0.12,0.17,0.19,0.24c0.23,0.24,0.48,0.46,0.76,0.63l5.07,2.94
					c-0.28-0.16-0.53-0.38-0.76-0.63c-0.07-0.07-0.13-0.16-0.19-0.24c-0.19-0.24-0.38-0.5-0.52-0.81c0,0,0-0.01-0.01-0.01
					c-0.17-0.37-0.3-0.78-0.39-1.23c0-0.01-0.01-0.03-0.01-0.04c-0.09-0.46-0.14-0.95-0.14-1.49l-0.07-25.86
					c0-0.55,0.05-1.11,0.14-1.68c0,0,0,0,0-0.01c0.09-0.57,0.22-1.14,0.4-1.71c0-0.01,0-0.02,0.01-0.02
					c0.17-0.57,0.38-1.14,0.63-1.7c0-0.01,0.01-0.01,0.01-0.02c0.24-0.55,0.52-1.09,0.82-1.61c0.01-0.03,0.03-0.05,0.04-0.08
					c0.31-0.53,0.64-1.04,1-1.53c0,0,0-0.01,0-0.01c0.37-0.5,0.76-0.97,1.17-1.4c0.01-0.01,0.01-0.01,0.02-0.02
					c0.41-0.43,0.83-0.83,1.27-1.19c0.01-0.01,0.02-0.02,0.03-0.03c0.45-0.36,0.91-0.68,1.38-0.96l41.46-23.93
					c0.48-0.28,0.94-0.49,1.4-0.64C287.61,84.46,287.62,84.46,287.63,84.46z"/>
			</g>
			<path class="st4" d="M286.21,85.11c3.82-2.21,6.95-0.43,6.96,3.97l0.07,25.86c0.01,4.39-3.09,9.77-6.91,11.98l-41.46,23.93
				c-3.82,2.21-6.95,0.43-6.96-3.97l-0.07-25.86c-0.01-4.39,3.09-9.77,6.91-11.98L286.21,85.11z"/>
			<path class="st0" d="M247.72,120.44l16.96,2.53c0.27,0.04,0.57-0.04,0.87-0.21c0.3-0.17,0.6-0.45,0.87-0.79l16.89-22.08
				c0.76-0.99,0.97-2.27,0.5-2.87c-0.31-0.39-0.84-0.39-1.38-0.08c-0.3,0.17-0.6,0.44-0.87,0.8l-16.02,20.95l-16.09-2.41
				c-0.27-0.04-0.57,0.04-0.87,0.21c-0.54,0.31-1.07,0.93-1.37,1.66C246.74,119.3,246.96,120.32,247.72,120.44"/>
		</g>
		<g>
			<g>
				<g class="st15">
					<g>
						<polygon class="st5" points="142.53,386.02 103.36,408.75 64.03,386.02 103.36,363.28 						"/>
					</g>
					<g>
						<polygon class="st11" points="129.67,361.38 96.92,380.39 64.03,361.38 96.92,342.37 						"/>
					</g>
					<g>
						<linearGradient id="SVGID_10_" gradientUnits="userSpaceOnUse" x1="96.9179" y1="383.2044" x2="129.6652" y2="383.2044">
							<stop  offset="0" style="stop-color:#3162DE"/>
							<stop  offset="1" style="stop-color:#6376F2"/>
						</linearGradient>
						<polygon class="st18" points="129.67,361.38 129.67,386.02 96.92,405.03 96.92,380.39 						"/>
					</g>
					<polygon class="st4" points="120.28,391.47 126.41,387.91 126.41,379.42 120.28,382.98 					"/>
					<g>
						<polygon class="st10" points="96.92,380.39 96.92,405.03 64.03,386.02 64.03,361.38 						"/>
					</g>
					<g>
						<polygon class="st11" points="75.64,382.6 75.64,389.62 66.27,384.2 66.27,377.19 						"/>
					</g>
				</g>
			</g>
			<polygon class="st0" points="77.52,353.58 110.38,372.57 116.2,369.2 83.35,350.21 			"/>
			<polygon class="st4" points="110.38,397.21 116.2,393.84 116.2,369.2 110.38,372.57 			"/>
		</g>
		<g>
			<path class="st5" d="M311.12,409.93l-3.78,3.03c1.04,0.99,1.78,2.05,2.23,3.14l6.35,0.6l-0.02,3.95l-6.35,0.6
				c-0.47,1.09-1.22,2.15-2.27,3.14l3.74,3.03l-4.83,2.79l-5.22-2.17c-1.71,0.6-3.54,1.04-5.43,1.3l-1.06,3.68l-6.82,0l-1.02-3.68
				c-1.89-0.26-3.72-0.7-5.42-1.3l-5.23,2.17l-4.81-2.79l3.77-3.03c-1.04-0.99-1.78-2.05-2.22-3.14l-6.35-0.6l0.02-3.95l6.35-0.6
				c0.47-1.09,1.22-2.15,2.26-3.14l-3.73-3.03l4.83-2.79l5.21,2.17c1.72-0.6,3.54-1.03,5.44-1.3l1.06-3.68l6.82,0l1.02,3.68
				c1.89,0.26,3.71,0.69,5.41,1.3l5.24-2.17L311.12,409.93z M296.75,421.93c3.11-1.8,3.12-4.71,0.03-6.51c-3.1-1.8-8.12-1.8-11.23,0
				c-3.12,1.8-3.13,4.71-0.04,6.51C288.6,423.73,293.63,423.73,296.75,421.93"/>
		</g>
		<g>
			<polygon class="st0" points="331.69,103.74 331.67,110.01 335.93,112.46 335.95,106.2 335.96,102.33 331.7,99.87 			"/>
			<polygon class="st0" points="360.29,111.65 360.32,102.45 356.06,99.99 356.03,109.19 355.99,124.05 360.25,126.51 			"/>
			<polygon class="st0" points="332.67,78.45 328.59,76.09 328.58,77.94 332.66,80.29 			"/>
			<polygon class="st0" points="332.68,74.54 328.6,72.18 328.59,74.03 332.67,76.38 			"/>
			<polygon class="st0" points="339.77,114.69 344.03,117.14 344.06,106.16 344.08,99.37 339.82,96.91 339.8,103.7 			"/>
			<polygon class="st0" points="347.91,109.94 347.88,119.37 352.14,121.82 352.17,112.39 352.18,106.55 347.93,104.1 			"/>
			<path class="st0" d="M343.29,82.37c0.18,0.11,0.35,0.12,0.48,0.04c0.12-0.07,0.2-0.23,0.2-0.44l-0.02-0.16l-0.04-0.17l-0.06-0.18
				l-0.08-0.16c-0.13-0.22-0.31-0.4-0.49-0.5c-0.18-0.1-0.36-0.13-0.48-0.06l-0.08,0.07l-0.07,0.1l-0.03,0.12l-0.01,0.14
				c0,0.21,0.06,0.45,0.19,0.66C342.94,82.08,343.11,82.27,343.29,82.37z"/>
			<path class="st0" d="M345.39,83.59l6.31,3.64c0.38,0.22,0.68,0.04,0.68-0.4c0-0.43-0.3-0.96-0.68-1.17l-6.31-3.64
				c-0.38-0.22-0.68-0.04-0.68,0.39C344.71,82.84,345.02,83.37,345.39,83.59z"/>
			<path class="st0" d="M336.02,78.18l5.26,3.04c0.38,0.22,0.69,0.05,0.69-0.39c0-0.43-0.3-0.96-0.68-1.18l-5.26-3.04
				c-0.38-0.22-0.69-0.05-0.69,0.39C335.34,77.43,335.64,77.96,336.02,78.18z"/>
			<path class="st0" d="M336.01,82.09l10.87,6.28c0.38,0.22,0.69,0.05,0.69-0.39c0-0.43-0.3-0.96-0.68-1.18l-10.87-6.28
				c-0.38-0.22-0.69-0.05-0.69,0.39C335.33,81.35,335.63,81.87,336.01,82.09z"/>
			<path class="st0" d="M351.7,89.57l-2.5-1.44c-0.38-0.22-0.68-0.04-0.68,0.39c0,0.44,0.3,0.96,0.68,1.18l2.5,1.44
				c0.38,0.22,0.68,0.04,0.68-0.4C352.38,90.32,352.07,89.79,351.7,89.57z"/>
			<path class="st0" d="M366.09,133.14l-37.26-21.51l0.08-29.2c0-0.21-0.15-0.48-0.34-0.59c-0.18-0.11-0.34-0.02-0.34,0.19
				l-0.08,29.59c0,0.22,0.15,0.48,0.34,0.59l37.61,21.71c0.18,0.11,0.34,0.02,0.34-0.2C366.43,133.51,366.28,133.24,366.09,133.14z"
				/>
		</g>
		<g>
			<g class="st15">
				<path class="st0" d="M377.25,159.95l52.55,30.34l-0.14,50.4c0,1.67-1.19,2.35-2.64,1.51l-47.27-27.29
					c-1.46-0.84-2.64-2.88-2.64-4.55L377.25,159.95z"/>
				<path class="st10" d="M427.2,177.74c1.46,0.84,2.63,2.88,2.63,4.56l-0.02,8l-52.55-30.34l0.02-8c0-1.68,1.2-2.35,2.65-1.51
					L427.2,177.74z"/>
				<g>
					<path class="st7" d="M383.16,159.7c-0.96-0.55-1.73-1.89-1.73-2.99c0-1.09,0.78-1.53,1.74-0.98c0.95,0.55,1.72,1.88,1.72,2.97
						C384.89,159.8,384.11,160.25,383.16,159.7z"/>
				</g>
				<g>
					<path class="st4" d="M390.05,163.68c-0.96-0.55-1.72-1.88-1.72-2.98c0-1.09,0.77-1.54,1.73-0.98c0.95,0.55,1.72,1.88,1.72,2.97
						C391.78,163.78,391,164.22,390.05,163.68z"/>
				</g>
				<g>
					<path class="st7" d="M410.69,198.21c1.09,0.63,1.98,2.16,1.97,3.42c0,1.26-0.89,1.76-1.99,1.13l-25.95-14.99
						c-1.09-0.63-1.97-2.16-1.97-3.41c0-1.26,0.88-1.77,1.98-1.14L410.69,198.21z"/>
				</g>
				<g>
					<path class="st7" d="M419.51,193.89c1.09,0.63,1.98,2.16,1.97,3.42c0,1.26-0.89,1.76-1.99,1.13l-34.75-20.06
						c-1.09-0.63-1.97-2.16-1.97-3.41c0-1.26,0.88-1.77,1.98-1.14L419.51,193.89z"/>
				</g>
				<g>
					<path class="st19" d="M396.94,167.65c-0.95-0.55-1.72-1.89-1.72-2.98c0-1.09,0.78-1.53,1.73-0.98
						c0.96,0.55,1.72,1.88,1.72,2.97C398.67,167.76,397.9,168.21,396.94,167.65z"/>
				</g>
				<g>
					<path class="st7" d="M410.65,211.75c1.09,0.63,1.98,2.16,1.97,3.42c0,1.26-0.89,1.76-1.99,1.13l-25.95-14.99
						c-1.09-0.63-1.97-2.16-1.97-3.41c0-1.26,0.88-1.77,1.98-1.14L410.65,211.75z"/>
				</g>
			</g>
		</g>
	</g>
</g>
</svg>
